<?xml version="1.0" encoding="UTF-8" standalone="no"?>
<!-- Created with Inkscape (http://www.inkscape.org/) -->

<svg
   xmlns:dc="http://purl.org/dc/elements/1.1/"
   xmlns:cc="http://creativecommons.org/ns#"
   xmlns:rdf="http://www.w3.org/1999/02/22-rdf-syntax-ns#"
   xmlns:svg="http://www.w3.org/2000/svg"
   xmlns="http://www.w3.org/2000/svg"
   xmlns:sodipodi="http://sodipodi.sourceforge.net/DTD/sodipodi-0.dtd"
   xmlns:inkscape="http://www.inkscape.org/namespaces/inkscape"
   width="210mm"
   height="297mm"
   viewBox="0 0 210 297"
   version="1.1"
   id="svg5004"
   inkscape:version="0.92.1 r15371"
   sodipodi:docname="logo_original.svg">
  <defs
     id="defs4998" />
  <sodipodi:namedview
     id="base"
     pagecolor="#ffffff"
     bordercolor="#666666"
     borderopacity="1.0"
     inkscape:pageopacity="0.0"
     inkscape:pageshadow="2"
     inkscape:zoom="0.9899495"
     inkscape:cx="383.80222"
     inkscape:cy="787.44022"
     inkscape:document-units="mm"
     inkscape:current-layer="g5626"
     showgrid="false"
     inkscape:window-width="1680"
     inkscape:window-height="987"
     inkscape:window-x="-8"
     inkscape:window-y="-8"
     inkscape:window-maximized="1" />
  <metadata
     id="metadata5001">
    <rdf:RDF>
      <cc:Work
         rdf:about="">
        <dc:format>image/svg+xml</dc:format>
        <dc:type
           rdf:resource="http://purl.org/dc/dcmitype/StillImage" />
        <dc:title />
      </cc:Work>
    </rdf:RDF>
  </metadata>
  <g
     inkscape:label="Layer 1"
     inkscape:groupmode="layer"
     id="layer1">
    <g
       id="g5626"
       transform="matrix(5.0592783,0,0,5.1752971,-713.63257,-382.36015)"
       style="stroke-width:0.19542858">
      <g
         id="g4526">
        <path
           id="rect4762"
           transform="matrix(0.05229666,0,0,0.05112428,141.05422,73.881778)"
           d="M 440.65234 252.62891 C 364.76317 330.25817 364.76245 330.25842 314.16992 382.01172 L 440.65234 382.01172 L 567.13281 382.01172 L 567.13281 252.62891 L 440.65234 252.62891 z M 567.13477 252.62891 L 567.13477 382.01172 L 617.72656 330.25977 L 693.61523 252.62891 L 567.13477 252.62891 z "
           style="opacity:1;fill:#9c8cd4;fill-opacity:1;fill-rule:nonzero;stroke:none;stroke-width:0.49889758;stroke-linecap:butt;stroke-linejoin:round;stroke-miterlimit:9.80000019;stroke-dasharray:none;stroke-dashoffset:0;stroke-opacity:1;paint-order:normal" />
        <path
           id="rect4764"
           transform="matrix(0.05229666,0,0,0.05112428,141.05422,73.881778)"
           d="M 314.16992 382.01367 L 314.16992 511.39453 L 314.16992 640.77734 C 390.0591 563.14808 390.05962 563.14763 440.65234 511.39453 L 440.65234 382.01367 L 314.16992 382.01367 z "
           style="opacity:1;fill:#7159c1;fill-opacity:1;fill-rule:nonzero;stroke:none;stroke-width:0.49889758;stroke-linecap:butt;stroke-linejoin:round;stroke-miterlimit:9.80000019;stroke-dasharray:none;stroke-dashoffset:0;stroke-opacity:1;paint-order:normal" />
        <path
           id="rect4790"
           transform="matrix(0.05229666,0,0,0.05112428,141.05422,73.881778)"
           d="M 288.28711 91.853516 L 198.94922 183.44141 L 109.61328 275.0293 L 199.14648 366.41602 L 288.48438 274.82812 C 288.36391 165.04389 288.3636 165.0434 288.28711 91.853516 z "
           style="opacity:1;fill:#7159c1;fill-opacity:1;fill-rule:nonzero;stroke:none;stroke-width:0.49889758;stroke-linecap:butt;stroke-linejoin:round;stroke-miterlimit:9.80000019;stroke-dasharray:none;stroke-dashoffset:0;stroke-opacity:1;paint-order:normal" />
        <path
           id="path4808"
           transform="matrix(0.05229666,0,0,0.05112428,141.05422,73.881778)"
           d="M 109.61328 275.0293 C 109.73375 384.81236 109.73406 384.81441 109.81055 458.00195 L 109.80859 458.00391 L 199.34375 549.39062 L 288.87305 640.77734 L 288.79688 567.58789 L 288.68164 457.80273 L 199.14648 366.41602 L 109.61328 275.0293 z "
           style="opacity:1;fill:#9c8cd4;fill-opacity:1;fill-rule:nonzero;stroke:none;stroke-width:0.49889758;stroke-linecap:butt;stroke-linejoin:round;stroke-miterlimit:9.80000019;stroke-dasharray:none;stroke-dashoffset:0;stroke-opacity:1;paint-order:normal" />
      </g>
    </g>
  </g>
</svg>
